<svg data-v-423bf9ae="" xmlns="http://www.w3.org/2000/svg" viewBox="0 0 534 90" class="iconLeft"><!----><!----><!----><g data-v-423bf9ae="" id="8f9098f7-ee08-40cf-8f9f-c4327ebe83b2" fill="black" transform="matrix(5.612721889848748,0,0,5.612721889848748,106.6884980274744,-1.5575315116192954)"><path d="M4.51 13.64L4.51 13.64Q3.37 13.64 2.48 13.15L2.48 13.15L2.48 13.15Q1.60 12.66 1.09 11.79L1.09 11.79L1.09 11.79Q0.59 10.93 0.59 9.84L0.59 9.84L0.59 9.84Q0.59 8.75 1.09 7.89L1.09 7.89L1.09 7.89Q1.60 7.03 2.48 6.54L2.48 6.54L2.48 6.54Q3.37 6.06 4.51 6.06L4.51 6.06L4.51 6.06Q5.52 6.06 6.31 6.47L6.31 6.47L6.31 6.47Q7.10 6.87 7.53 7.64L7.53 7.64L6.51 8.30L6.51 8.30Q6.16 7.77 5.64 7.50L5.64 7.50L5.64 7.50Q5.12 7.24 4.49 7.24L4.49 7.24L4.49 7.24Q3.77 7.24 3.19 7.56L3.19 7.56L3.19 7.56Q2.60 7.88 2.27 8.48L2.27 8.48L2.27 8.48Q1.95 9.07 1.95 9.84L1.95 9.84L1.95 9.84Q1.95 10.63 2.27 11.22L2.27 11.22L2.27 11.22Q2.60 11.82 3.19 12.14L3.19 12.14L3.19 12.14Q3.77 12.46 4.49 12.46L4.49 12.46L4.49 12.46Q5.12 12.46 5.64 12.19L5.64 12.19L5.64 12.19Q6.16 11.93 6.51 11.40L6.51 11.40L7.53 12.04L7.53 12.04Q7.10 12.81 6.31 13.22L6.31 13.22L6.31 13.22Q5.52 13.64 4.51 13.64L4.51 13.64ZM11.97 6.06L11.97 6.06Q13.51 6.06 14.33 6.82L14.33 6.82L14.33 6.82Q15.15 7.57 15.15 9.07L15.15 9.07L15.15 13.55L13.87 13.55L13.87 12.57L13.87 12.57Q13.54 13.09 12.91 13.36L12.91 13.36L12.91 13.36Q12.29 13.64 11.44 13.64L11.44 13.64L11.44 13.64Q10.19 13.64 9.44 13.03L9.44 13.03L9.44 13.03Q8.69 12.43 8.69 11.45L8.69 11.45L8.69 11.45Q8.69 10.47 9.41 9.88L9.41 9.88L9.41 9.88Q10.12 9.28 11.68 9.28L11.68 9.28L13.80 9.28L13.80 9.02L13.80 9.02Q13.80 8.15 13.30 7.69L13.30 7.69L13.30 7.69Q12.80 7.22 11.82 7.22L11.82 7.22L11.82 7.22Q11.16 7.22 10.53 7.44L10.53 7.44L10.53 7.44Q9.90 7.66 9.46 8.02L9.46 8.02L8.90 7.01L8.90 7.01Q9.48 6.55 10.28 6.31L10.28 6.31L10.28 6.31Q11.07 6.06 11.97 6.06L11.97 6.06ZM11.66 12.60L11.66 12.60Q12.43 12.60 12.99 12.26L12.99 12.26L12.99 12.26Q13.55 11.91 13.80 11.28L13.80 11.28L13.80 10.25L11.73 10.25L11.73 10.25Q10.02 10.25 10.02 11.40L10.02 11.40L10.02 11.40Q10.02 11.96 10.46 12.28L10.46 12.28L10.46 12.28Q10.89 12.60 11.66 12.60L11.66 12.60ZM26.92 6.06L26.92 6.06Q28.32 6.06 29.14 6.87L29.14 6.87L29.14 6.87Q29.96 7.69 29.96 9.28L29.96 9.28L29.96 13.55L28.62 13.55L28.62 9.44L28.62 9.44Q28.62 8.36 28.12 7.81L28.12 7.81L28.12 7.81Q27.62 7.27 26.70 7.27L26.70 7.27L26.70 7.27Q25.68 7.27 25.07 7.90L25.07 7.90L25.07 7.90Q24.47 8.54 24.47 9.73L24.47 9.73L24.47 13.55L23.13 13.55L23.13 9.44L23.13 9.44Q23.13 8.36 22.63 7.81L22.63 7.81L22.63 7.81Q22.13 7.27 21.21 7.27L21.21 7.27L21.21 7.27Q20.19 7.27 19.59 7.90L19.59 7.90L19.59 7.90Q18.98 8.54 18.98 9.73L18.98 9.73L18.98 13.55L17.64 13.55L17.64 6.13L18.93 6.13L18.93 7.24L18.93 7.24Q19.33 6.66 19.99 6.36L19.99 6.36L19.99 6.36Q20.65 6.06 21.49 6.06L21.49 6.06L21.49 6.06Q22.36 6.06 23.03 6.41L23.03 6.41L23.03 6.41Q23.70 6.76 24.07 7.43L24.07 7.43L24.07 7.43Q24.49 6.79 25.23 6.43L25.23 6.43L25.23 6.43Q25.98 6.06 26.92 6.06L26.92 6.06ZM35.14 6.06L35.14 6.06Q36.68 6.06 37.50 6.82L37.50 6.82L37.50 6.82Q38.32 7.57 38.32 9.07L38.32 9.07L38.32 13.55L37.04 13.55L37.04 12.57L37.04 12.57Q36.71 13.09 36.09 13.36L36.09 13.36L36.09 13.36Q35.46 13.64 34.61 13.64L34.61 13.64L34.61 13.64Q33.36 13.64 32.61 13.03L32.61 13.03L32.61 13.03Q31.86 12.43 31.86 11.45L31.86 11.45L31.86 11.45Q31.86 10.47 32.58 9.88L32.58 9.88L32.58 9.88Q33.29 9.28 34.85 9.28L34.85 9.28L36.97 9.28L36.97 9.02L36.97 9.02Q36.97 8.15 36.47 7.69L36.47 7.69L36.47 7.69Q35.97 7.22 34.99 7.22L34.99 7.22L34.99 7.22Q34.33 7.22 33.70 7.44L33.70 7.44L33.70 7.44Q33.07 7.66 32.63 8.02L32.63 8.02L32.07 7.01L32.07 7.01Q32.65 6.55 33.45 6.31L33.45 6.31L33.45 6.31Q34.24 6.06 35.14 6.06L35.14 6.06ZM34.83 12.60L34.83 12.60Q35.60 12.60 36.16 12.26L36.16 12.26L36.16 12.26Q36.72 11.91 36.97 11.28L36.97 11.28L36.97 10.25L34.90 10.25L34.90 10.25Q33.19 10.25 33.19 11.40L33.19 11.40L33.19 11.40Q33.19 11.96 33.63 12.28L33.63 12.28L33.63 12.28Q34.06 12.60 34.83 12.60L34.83 12.60ZM46.47 3.16L47.81 3.16L47.81 13.55L46.52 13.55L46.52 12.38L46.52 12.38Q46.07 12.99 45.39 13.31L45.39 13.31L45.39 13.31Q44.70 13.64 43.88 13.64L43.88 13.64L43.88 13.64Q42.80 13.64 41.94 13.16L41.94 13.16L41.94 13.16Q41.09 12.68 40.61 11.82L40.61 11.82L40.61 11.82Q40.12 10.96 40.12 9.84L40.12 9.84L40.12 9.84Q40.12 8.72 40.61 7.87L40.61 7.87L40.61 7.87Q41.09 7.01 41.94 6.54L41.94 6.54L41.94 6.54Q42.80 6.06 43.88 6.06L43.88 6.06L43.88 6.06Q44.67 6.06 45.35 6.36L45.35 6.36L45.35 6.36Q46.02 6.66 46.47 7.25L46.47 7.25L46.47 3.16ZM43.99 12.46L43.99 12.46Q44.69 12.46 45.26 12.13L45.26 12.13L45.26 12.13Q45.84 11.80 46.16 11.21L46.16 11.21L46.16 11.21Q46.48 10.61 46.48 9.84L46.48 9.84L46.48 9.84Q46.48 9.07 46.16 8.48L46.16 8.48L46.16 8.48Q45.84 7.88 45.26 7.56L45.26 7.56L45.26 7.56Q44.69 7.24 43.99 7.24L43.99 7.24L43.99 7.24Q43.27 7.24 42.71 7.56L42.71 7.56L42.71 7.56Q42.14 7.88 41.81 8.48L41.81 8.48L41.81 8.48Q41.48 9.07 41.48 9.84L41.48 9.84L41.48 9.84Q41.48 10.61 41.81 11.21L41.81 11.21L41.81 11.21Q42.14 11.80 42.71 12.13L42.71 12.13L42.71 12.13Q43.27 12.46 43.99 12.46L43.99 12.46ZM59.64 6.06L59.64 6.06Q61.04 6.06 61.86 6.87L61.86 6.87L61.86 6.87Q62.68 7.69 62.68 9.28L62.68 9.28L62.68 13.55L61.33 13.55L61.33 9.44L61.33 9.44Q61.33 8.36 60.84 7.81L60.84 7.81L60.84 7.81Q60.34 7.27 59.42 7.27L59.42 7.27L59.42 7.27Q58.39 7.27 57.79 7.90L57.79 7.90L57.79 7.90Q57.19 8.54 57.19 9.73L57.19 9.73L57.19 13.55L55.85 13.55L55.85 9.44L55.85 9.44Q55.85 8.36 55.35 7.81L55.35 7.81L55.35 7.81Q54.85 7.27 53.93 7.27L53.93 7.27L53.93 7.27Q52.91 7.27 52.30 7.90L52.30 7.90L52.30 7.90Q51.70 8.54 51.70 9.73L51.70 9.73L51.70 13.55L50.36 13.55L50.36 6.13L51.65 6.13L51.65 7.24L51.65 7.24Q52.05 6.66 52.71 6.36L52.71 6.36L52.71 6.36Q53.37 6.06 54.21 6.06L54.21 6.06L54.21 6.06Q55.08 6.06 55.75 6.41L55.75 6.41L55.75 6.41Q56.42 6.76 56.78 7.43L56.78 7.43L56.78 7.43Q57.20 6.79 57.95 6.43L57.95 6.43L57.95 6.43Q58.70 6.06 59.64 6.06L59.64 6.06ZM65.16 13.55L65.16 6.13L66.50 6.13L66.50 13.55L65.16 13.55ZM65.83 4.70L65.83 4.70Q65.44 4.70 65.18 4.45L65.18 4.45L65.18 4.45Q64.92 4.20 64.92 3.84L64.92 3.84L64.92 3.84Q64.92 3.47 65.18 3.21L65.18 3.21L65.18 3.21Q65.44 2.95 65.83 2.95L65.83 2.95L65.83 2.95Q66.22 2.95 66.48 3.20L66.48 3.20L66.48 3.20Q66.74 3.44 66.74 3.81L66.74 3.81L66.74 3.81Q66.74 4.19 66.48 4.45L66.48 4.45L66.48 4.45Q66.22 4.70 65.83 4.70L65.83 4.70ZM73.02 6.06L73.02 6.06Q74.44 6.06 75.27 6.88L75.27 6.88L75.27 6.88Q76.10 7.70 76.10 9.28L76.10 9.28L76.10 13.55L74.76 13.55L74.76 9.44L74.76 9.44Q74.76 8.36 74.24 7.81L74.24 7.81L74.24 7.81Q73.72 7.27 72.76 7.27L72.76 7.27L72.76 7.27Q71.67 7.27 71.04 7.90L71.04 7.90L71.04 7.90Q70.41 8.54 70.41 9.73L70.41 9.73L70.41 13.55L69.06 13.55L69.06 6.13L70.35 6.13L70.35 7.25L70.35 7.25Q70.76 6.68 71.45 6.37L71.45 6.37L71.45 6.37Q72.14 6.06 73.02 6.06L73.02 6.06Z"></path></g><!----><g data-v-423bf9ae="" id="86d7d843-2f3f-4d7b-8e55-95e57e00efd0" transform="matrix(2.8125,0,0,2.8125,0,0)" stroke="none" fill="black"><path d="M9.571 20.464l8.064 4.47 8.065-4.47v-8.939l-8.065-4.469-8.064 4.469z"></path><path d="M32 0H0v32h32l-5.054-5.172H5.054V5.172h21.892z"></path></g><!----></svg>